<svg xmlns="http://www.w3.org/2000/svg" viewBox="0 0 32 32">
  <path d="M29.54 21.01H7.2c-.38 0-.73.15-1 .42l-4.41 4.41c-.28.27-.36.68-.21 1.04s.5.6.89.6h22.35c.38 0 .73-.15 1-.41l4.41-4.41c.28-.27.36-.68.21-1.04a.96.96 0 0 0-.89-.59Zm-4.45 5.34a.4.4 0 0 1-.29.12l-22.31.08 4.42-4.42a.4.4 0 0 1 .29-.12h22.24l-4.34 4.34ZM2.46 10.98h22.35c.38 0 .73-.15 1-.41l4.41-4.41c.28-.27.36-.68.21-1.04a.96.96 0 0 0-.89-.59H7.2c-.38 0-.73.15-1 .41L1.79 9.35c-.28.27-.36.68-.21 1.04s.5.6.89.6Zm4.45-5.33a.4.4 0 0 1 .29-.12l22.32-.08-4.42 4.41a.4.4 0 0 1-.29.12H2.57l4.34-4.33ZM6.2 18.81c.27.27.62.42 1 .42h22.35a.954.954 0 0 0 .68-1.63l-4.42-4.41a1.4 1.4 0 0 0-1-.42H2.46c-.39 0-.74.23-.89.6-.15.36-.06.77.21 1.04l4.42 4.41Zm18.61-5.04a.4.4 0 0 1 .29.12l4.45 4.33H7.2a.4.4 0 0 1-.29-.12l-4.45-4.33h22.35Z"/>
</svg>